<svg width="24" height="24" viewBox="0 0 24 24" fill="none" xmlns="http://www.w3.org/2000/svg">
<path fill-rule="evenodd" clip-rule="evenodd" d="M11.4753 11.6333C11.3733 11.633 11.277 11.5863 11.2164 11.5071C10.2025 10.2041 9.96155 8.48783 10.5797 6.97206C11.1232 5.65823 12.2488 4.6479 13.6475 4.21876C14.3357 4.00742 15.0647 3.94813 15.78 4.04558C16.4426 4.13452 17.0784 4.35525 17.6475 4.69428C17.7755 4.7706 17.9034 4.85278 18.0192 4.93791C18.173 5.02802 18.2218 5.22116 18.1282 5.36939C18.0347 5.51763 17.8343 5.56459 17.6804 5.47448C17.6646 5.46538 17.6493 5.45452 17.6353 5.44278C17.5317 5.36939 17.419 5.29601 17.3063 5.2285C16.8231 4.94055 16.2842 4.75064 15.7221 4.6708H15.7069C15.0839 4.58303 14.4484 4.63323 13.8485 4.81756C12.6382 5.19181 11.6642 6.06682 11.192 7.20394C10.6491 8.51777 10.856 10.0095 11.7373 11.1402C11.84 11.2825 11.8034 11.4783 11.6554 11.5772C11.6024 11.6127 11.5399 11.6321 11.4753 11.6333ZM15.113 13.3944C14.0927 13.3977 13.0978 13.0895 12.2707 12.5139C12.1326 12.4023 12.115 12.2042 12.2307 12.0715C12.3346 11.952 12.5141 11.9245 12.6515 12.0061C13.3677 12.5048 14.2295 12.7719 15.113 12.7692C17.4466 12.7686 19.3379 10.9455 19.3373 8.69682C19.3373 8.26445 19.2657 7.83473 19.1252 7.42408C19.1128 7.38604 19.0989 7.34936 19.0855 7.31404L19.0855 7.31402L19.0854 7.31386C19.0792 7.29747 19.0731 7.28138 19.0673 7.26558C18.9385 6.93125 18.763 6.61541 18.5464 6.32629C18.452 6.17864 18.4995 5.98521 18.6527 5.89392C18.7901 5.81232 18.9696 5.83991 19.0734 5.95938C19.3263 6.29224 19.5313 6.65651 19.6827 7.0425C19.7071 7.1012 19.7315 7.16871 19.7528 7.23329C20.5924 9.69775 19.1996 12.3512 16.6417 13.1602C16.1485 13.3164 15.6324 13.3953 15.113 13.3944ZM4.11714 19.3586C3.96486 19.5053 3.96486 19.7432 4.11714 19.89C4.26943 20.0367 4.51633 20.0367 4.66861 19.89L11.1362 13.6584C11.2885 13.5117 11.2885 13.2738 11.1362 13.1271C10.9839 12.9803 10.737 12.9803 10.5848 13.1271L4.11714 19.3586Z" fill="#23201D"/>
<path d="M11.2164 11.5071L11.3355 11.4159L11.3348 11.4149L11.2164 11.5071ZM11.4753 11.6333L11.4749 11.7833L11.4781 11.7833L11.4753 11.6333ZM10.5797 6.97206L10.4411 6.91472L10.4408 6.91542L10.5797 6.97206ZM13.6475 4.21876L13.6915 4.36217L13.6915 4.36216L13.6475 4.21876ZM15.78 4.04558L15.7598 4.19421L15.7601 4.19425L15.78 4.04558ZM17.6475 4.69428L17.7243 4.56545L17.7243 4.56541L17.6475 4.69428ZM18.0192 4.93791L17.9303 5.05875L17.9366 5.06339L17.9434 5.06734L18.0192 4.93791ZM17.6804 5.47448L17.7562 5.34504L17.7551 5.34441L17.6804 5.47448ZM17.6353 5.44278L17.732 5.32742L17.722 5.32038L17.6353 5.44278ZM17.3063 5.2285L17.3834 5.09982L17.3831 5.09965L17.3063 5.2285ZM15.7221 4.6708L15.7432 4.52229L15.7327 4.5208H15.7221V4.6708ZM15.7069 4.6708L15.686 4.81933L15.6964 4.8208H15.7069V4.6708ZM13.8485 4.81756L13.8045 4.67418L13.8042 4.67426L13.8485 4.81756ZM11.192 7.20394L11.0535 7.14642L11.0534 7.14666L11.192 7.20394ZM11.7373 11.1402L11.8591 11.0524L11.8556 11.0479L11.7373 11.1402ZM11.6554 11.5772L11.5721 11.4525L11.5719 11.4526L11.6554 11.5772ZM12.2707 12.5139L12.1761 12.6308L12.185 12.637L12.2707 12.5139ZM15.113 13.3944L15.1133 13.2444L15.1125 13.2444L15.113 13.3944ZM12.2307 12.0715L12.3438 12.1701L12.3439 12.1699L12.2307 12.0715ZM12.6515 12.0061L12.7374 11.8826L12.7281 11.8771L12.6515 12.0061ZM15.113 12.7692L15.113 12.6192L15.1126 12.6192L15.113 12.7692ZM19.3373 8.69682H19.1873V8.69686L19.3373 8.69682ZM19.1252 7.42408L18.9827 7.4708L18.9833 7.47262L19.1252 7.42408ZM19.0855 7.31404L19.2258 7.26093L19.2254 7.25989L19.0855 7.31404ZM19.0854 7.31386L18.9451 7.36696L18.9455 7.36801L19.0854 7.31386ZM19.0673 7.26558L19.2082 7.21398L19.2073 7.21163L19.0673 7.26558ZM18.5464 6.32629L18.4197 6.40734L18.4264 6.41622L18.5464 6.32629ZM18.6527 5.89392L18.5761 5.76495L18.576 5.76505L18.6527 5.89392ZM19.0734 5.95938L19.1931 5.86844L19.1866 5.86095L19.0734 5.95938ZM19.6827 7.0425L19.5431 7.09728L19.5442 7.10001L19.6827 7.0425ZM19.7528 7.23329L19.6104 7.28033L19.6108 7.28166L19.7528 7.23329ZM16.6417 13.1602L16.5965 13.0172L16.5965 13.0172L16.6417 13.1602ZM4.11714 19.89L4.22122 19.7819H4.22122L4.11714 19.89ZM4.11714 19.3586L4.22122 19.4666H4.22122L4.11714 19.3586ZM4.66861 19.89L4.77269 19.998H4.77269L4.66861 19.89ZM11.1362 13.6584L11.0322 13.5504H11.0322L11.1362 13.6584ZM11.1362 13.1271L11.0322 13.2351H11.0322L11.1362 13.1271ZM10.5848 13.1271L10.6888 13.2351L10.5848 13.1271ZM11.0973 11.5982C11.1872 11.7157 11.328 11.7829 11.4749 11.7833L11.4758 11.4833C11.4186 11.4831 11.3669 11.4569 11.3355 11.4159L11.0973 11.5982ZM10.4408 6.91542C9.80218 8.48141 10.0515 10.2543 11.098 11.5992L11.3348 11.4149C10.3535 10.1539 10.1209 8.49426 10.7186 7.0287L10.4408 6.91542ZM13.6035 4.07536C12.1635 4.51719 11.0022 5.55816 10.4411 6.91472L10.7183 7.02939C11.2441 5.75829 12.3342 4.77861 13.6915 4.36217L13.6035 4.07536ZM15.8003 3.89696C15.0634 3.79657 14.3125 3.85763 13.6034 4.07537L13.6915 4.36216C14.3589 4.15721 15.066 4.09969 15.7598 4.19421L15.8003 3.89696ZM17.7243 4.56541C17.1376 4.21591 16.4824 3.98852 15.8 3.89692L15.7601 4.19425C16.4028 4.28052 17.0193 4.4946 17.5707 4.82315L17.7243 4.56541ZM18.108 4.81706C17.9872 4.72821 17.8549 4.64334 17.7243 4.56545L17.5707 4.8231C17.696 4.89785 17.8196 4.97736 17.9303 5.05875L18.108 4.81706ZM18.2551 5.44944C18.3952 5.22746 18.3199 4.94021 18.095 4.80848L17.9434 5.06734C18.0262 5.11583 18.0484 5.21487 18.0014 5.28935L18.2551 5.44944ZM17.6046 5.60391C17.8262 5.73369 18.1171 5.66813 18.2551 5.44944L18.0014 5.28935C17.9523 5.36712 17.8423 5.39549 17.7562 5.34505L17.6046 5.60391ZM17.539 5.55775C17.5589 5.57447 17.5814 5.59057 17.6057 5.60455L17.7551 5.34441C17.7478 5.34019 17.7397 5.33456 17.7317 5.3278L17.539 5.55775ZM17.2292 5.35719C17.3388 5.42281 17.4483 5.4941 17.5486 5.56517L17.722 5.32038C17.6152 5.24469 17.4993 5.16922 17.3834 5.09982L17.2292 5.35719ZM15.701 4.81931C16.2436 4.89637 16.7635 5.07965 17.2295 5.35735L17.3831 5.09965C16.8827 4.80145 16.3249 4.6049 15.7432 4.52229L15.701 4.81931ZM15.7069 4.8208H15.7221V4.5208H15.7069V4.8208ZM13.8926 4.96094C14.4714 4.78309 15.0847 4.73463 15.686 4.81933L15.7278 4.52226C15.0831 4.43144 14.4254 4.48337 13.8045 4.67418L13.8926 4.96094ZM11.3306 7.26147C11.7851 6.16686 12.7237 5.32238 13.8929 4.96087L13.8042 4.67426C12.5527 5.06124 11.5434 5.96677 11.0535 7.14642L11.3306 7.26147ZM11.8556 11.0479C11.0071 9.95935 10.8086 8.52465 11.3307 7.26123L11.0534 7.14666C10.4897 8.5109 10.7049 10.0596 11.619 11.2324L11.8556 11.0479ZM11.7387 11.7019C11.9558 11.5569 12.0125 11.2652 11.859 11.0524L11.6157 11.2279C11.6675 11.2998 11.6511 11.3997 11.5721 11.4525L11.7387 11.7019ZM11.4781 11.7833C11.5709 11.7816 11.6615 11.7537 11.7389 11.7018L11.5719 11.4526C11.5433 11.4718 11.509 11.4826 11.4726 11.4833L11.4781 11.7833ZM12.185 12.637C13.0377 13.2304 14.0628 13.5478 15.1135 13.5444L15.1125 13.2444C14.1227 13.2476 13.1578 12.9485 12.3563 12.3907L12.185 12.637ZM12.1177 11.9729C11.9455 12.1703 11.9728 12.466 12.1764 12.6305L12.3649 12.3972C12.2924 12.3386 12.2845 12.2381 12.3438 12.1701L12.1177 11.9729ZM12.7281 11.8771C12.5296 11.7592 12.27 11.7978 12.1176 11.9731L12.3439 12.1699C12.3993 12.1063 12.4985 12.0897 12.5749 12.135L12.7281 11.8771ZM15.1126 12.6192C14.2595 12.6218 13.4278 12.3638 12.7372 11.883L12.5657 12.1292C13.3076 12.6457 14.1996 12.922 15.1135 12.9192L15.1126 12.6192ZM19.1873 8.69686C19.1878 10.8575 17.369 12.6187 15.113 12.6192L15.1131 12.9192C17.5242 12.9186 19.4879 11.0335 19.4873 8.69678L19.1873 8.69686ZM18.9833 7.47262C19.1184 7.8677 19.1873 8.28103 19.1873 8.69682H19.4873C19.4873 8.24788 19.4129 7.80175 19.2672 7.37554L18.9833 7.47262ZM18.9452 7.36716C18.9588 7.40292 18.9714 7.43649 18.9827 7.4708L19.2678 7.37737C19.2541 7.33559 19.239 7.29579 19.2258 7.26093L18.9452 7.36716ZM18.9456 7.36817L18.9456 7.36819L19.2254 7.25989L19.2254 7.25987L18.9456 7.36817ZM18.9455 7.36801L18.9456 7.36817L19.2254 7.25987L19.2253 7.25972L18.9455 7.36801ZM18.9265 7.31717C18.9326 7.33386 18.939 7.35073 18.9451 7.36696L19.2257 7.26077C19.2195 7.24422 19.2137 7.2289 19.2082 7.21399L18.9265 7.31717ZM18.4264 6.41622C18.6348 6.69451 18.8036 6.99826 18.9274 7.31953L19.2073 7.21163C19.0734 6.86423 18.8912 6.53632 18.6664 6.23635L18.4264 6.41622ZM18.576 5.76505C18.3521 5.89839 18.2786 6.18598 18.42 6.40711L18.6728 6.24546C18.6253 6.17131 18.6468 6.07202 18.7295 6.02279L18.576 5.76505ZM19.1866 5.86095C19.0342 5.68565 18.7746 5.6471 18.5761 5.76495L18.7293 6.02289C18.8057 5.97754 18.9049 5.99417 18.9602 6.05781L19.1866 5.86095ZM19.8224 6.98772C19.6659 6.58873 19.454 6.21238 19.1929 5.86864L18.954 6.05011C19.1986 6.37209 19.3968 6.72428 19.5431 7.09727L19.8224 6.98772ZM19.8952 7.18625C19.8731 7.1193 19.8475 7.0481 19.8213 6.98498L19.5442 7.10001C19.5667 7.1543 19.5898 7.21812 19.6104 7.28033L19.8952 7.18625ZM16.687 13.3032C19.3208 12.4702 20.7629 9.73313 19.8948 7.18492L19.6108 7.28166C20.4219 9.66237 19.0783 12.2323 16.5965 13.0172L16.687 13.3032ZM15.1128 13.5444C15.6475 13.5453 16.179 13.4641 16.687 13.3032L16.5965 13.0172C16.1181 13.1687 15.6173 13.2453 15.1133 13.2444L15.1128 13.5444ZM4.22122 19.7819C4.13017 19.6942 4.13017 19.5544 4.22122 19.4666L4.01307 19.2506C3.79955 19.4563 3.79955 19.7923 4.01307 19.998L4.22122 19.7819ZM4.56454 19.7819C4.47035 19.8727 4.31541 19.8727 4.22122 19.7819L4.01307 19.998C4.22345 20.2007 4.56231 20.2007 4.77269 19.998L4.56454 19.7819ZM11.0322 13.5504L4.56454 19.7819L4.77269 19.998L11.2403 13.7664L11.0322 13.5504ZM11.0322 13.2351C11.1232 13.3228 11.1232 13.4627 11.0322 13.5504L11.2403 13.7664C11.4538 13.5607 11.4538 13.2248 11.2403 13.0191L11.0322 13.2351ZM10.6888 13.2351C10.783 13.1443 10.938 13.1443 11.0322 13.2351L11.2403 13.0191C11.0299 12.8164 10.6911 12.8164 10.4807 13.0191L10.6888 13.2351ZM4.22122 19.4666L10.6888 13.2351L10.4807 13.0191L4.01307 19.2506L4.22122 19.4666Z" fill="#23201D"/>
</svg>
