<svg width="43" height="43" viewBox="0 0 43 43" fill="none" xmlns="http://www.w3.org/2000/svg">
<path d="M29.8801 21.2744C29.8801 26.0268 26.0275 29.8795 21.277 29.8795C16.5236 29.8795 12.671 26.0268 12.671 21.2744C12.671 16.521 16.5236 12.6684 21.277 12.6684C26.0275 12.6684 29.8801 16.521 29.8801 21.2744Z" fill="#F6C833"/>
<path d="M21.2767 9.40027C20.7071 9.40027 20.2441 8.94008 20.2441 8.37047V1.03004C20.2441 0.460422 20.7071 0.000235558 21.2767 0.000235558C21.8464 0.000235558 22.3065 0.460422 22.3065 1.03004V8.37047C22.3065 8.94008 21.8464 9.40027 21.2767 9.40027Z" fill="#F6C833"/>
<path d="M21.2767 42.5499C20.7071 42.5499 20.2441 42.0881 20.2441 41.5185V34.1797C20.2441 33.6101 20.7071 33.1482 21.2767 33.1482C21.8464 33.1482 22.3065 33.6101 22.3065 34.1797V41.5185C22.3065 42.0881 21.8464 42.5499 21.2767 42.5499Z" fill="#F6C833"/>
<path d="M29.6724 12.8792C29.2684 12.4751 29.2684 11.8213 29.6724 11.4201L34.8607 6.229C35.2647 5.82775 35.9185 5.82775 36.3198 6.229C36.7238 6.63306 36.7238 7.28686 36.3198 7.68811L31.1315 12.8792C30.7275 13.2804 30.0765 13.2804 29.6724 12.8792Z" fill="#F6C833"/>
<path d="M6.23177 36.3187C5.82883 35.9158 5.82883 35.2626 6.23177 34.8599L11.4209 29.6705C11.8235 29.2678 12.4768 29.2678 12.8797 29.6705C13.2824 30.0734 13.2824 30.7264 12.8797 31.1293L7.69033 36.3187C7.28739 36.7216 6.63443 36.7216 6.23177 36.3187Z" fill="#F6C833"/>
<path d="M33.149 21.2748C33.149 20.7052 33.612 20.2422 34.1816 20.2422H41.5193C42.0889 20.2422 42.5519 20.7052 42.5519 21.2748C42.5519 21.8445 42.0889 22.3074 41.5193 22.3074H34.1816C33.612 22.3074 33.149 21.8445 33.149 21.2748Z" fill="#F6C833"/>
<path d="M0 21.2748C0 20.7052 0.461885 20.2422 1.0315 20.2422H8.37053C8.94015 20.2422 9.40173 20.7052 9.40173 21.2748C9.40173 21.8445 8.94015 22.3074 8.37053 22.3074H1.0315C0.461885 22.3074 0 21.8445 0 21.2748Z" fill="#F6C833"/>
<path d="M29.6724 29.6705C30.0765 29.2678 30.7275 29.2678 31.1315 29.6705L36.3198 34.8599C36.7238 35.2626 36.7238 35.9158 36.3198 36.3187C35.9185 36.7216 35.2647 36.7216 34.8607 36.3187L29.6724 31.1293C29.2684 30.7264 29.2684 30.0734 29.6724 29.6705Z" fill="#F6C833"/>
<path d="M6.23177 6.229C6.63443 5.82775 7.28739 5.82775 7.69033 6.229L12.8797 11.4201C13.2824 11.8213 13.2824 12.4751 12.8797 12.8792C12.4768 13.2804 11.8235 13.2804 11.4209 12.8792L6.23177 7.68811C5.82883 7.28686 5.82883 6.63306 6.23177 6.229Z" fill="#F6C833"/>
</svg>
