<svg width="28" height="25" viewBox="0 0 28 25" fill="none" xmlns="http://www.w3.org/2000/svg">
<path d="M1.45542 3.66197C1.45542 2.94084 1.93617 2.46009 2.6573 2.46009H3.85917C4.5803 2.46009 5.06105 2.94084 5.06105 3.66197C5.06105 4.3831 4.5803 4.86385 3.85917 4.86385H2.6573C1.93617 4.86385 1.45542 4.3831 1.45542 3.66197ZM2.6573 13.277C2.6573 12.5559 3.13805 12.0751 3.85917 12.0751H5.06105C5.78218 12.0751 6.26293 12.5559 6.26293 13.277C6.26293 13.9981 5.78218 14.4789 5.06105 14.4789H3.85917C3.13805 14.4789 2.6573 13.9981 2.6573 13.277ZM2.6573 16.8826C1.93617 16.8826 1.45542 17.3634 1.45542 18.0845C1.45542 18.8056 1.93617 19.2864 2.6573 19.2864H12.2723C12.9934 19.2864 13.4742 18.8056 13.4742 18.0845C13.4742 17.3634 12.9934 16.8826 12.2723 16.8826H2.6573ZM23.0892 3.66197C23.0892 2.94084 23.57 2.46009 24.2911 2.46009H26.6949C27.416 2.46009 27.8967 2.94084 27.8967 3.66197C27.8967 4.3831 27.416 4.86385 26.6949 4.86385H24.2911C23.57 4.86385 23.0892 4.3831 23.0892 3.66197ZM6.26293 21.6901C5.5418 21.6901 5.06105 22.1709 5.06105 22.892C5.06105 23.6131 5.5418 24.0939 6.26293 24.0939H14.6761C15.3972 24.0939 15.878 23.6131 15.878 22.892C15.878 22.1709 15.3972 21.6901 14.6761 21.6901H6.26293ZM1.45542 9.67136C0.734291 9.67136 0.25354 9.19061 0.25354 8.46948C0.25354 7.74835 0.734291 7.2676 1.45542 7.2676H15.878C17.2 7.2676 18.2817 6.18591 18.2817 4.86385C18.2817 3.54178 17.2 2.46009 15.878 2.46009C15.1568 2.46009 14.5559 2.70047 14.1953 3.18122C13.7146 3.66197 12.9934 3.66197 12.5127 3.18122C12.0319 2.70047 12.0319 1.97934 12.5127 1.49859C13.354 0.657275 14.5559 0.0563354 15.878 0.0563354C18.5221 0.0563354 20.6855 2.21972 20.6855 4.86385C20.6855 7.50798 18.5221 9.67136 15.878 9.67136H1.45542ZM24.2911 12.0751C25.0122 12.0751 25.493 11.5944 25.493 10.8732C25.493 10.1521 25.0122 9.67136 24.2911 9.67136C23.9305 9.67136 23.6902 9.79155 23.4498 10.0319C22.969 10.5127 22.2479 10.5127 21.7672 10.0319C21.2864 9.55117 21.2864 8.83004 21.7672 8.34929C22.3681 7.62817 23.3296 7.2676 24.2911 7.2676C26.3343 7.2676 27.8967 8.83004 27.8967 10.8732C27.8967 12.9164 26.3343 14.4789 24.2911 14.4789H13.4742C12.7531 14.4789 12.2723 13.9981 12.2723 13.277C12.2723 12.5559 12.7531 12.0751 13.4742 12.0751H24.2911ZM23.0892 19.2864H17.0798C16.3587 19.2864 15.878 18.8056 15.878 18.0845C15.878 17.3634 16.3587 16.8826 17.0798 16.8826H23.0892C25.1324 16.8826 26.6949 18.4451 26.6949 20.4883C26.6949 22.5315 25.1324 24.0939 23.0892 24.0939C22.1277 24.0939 21.1662 23.7333 20.5653 23.0122C20.0845 22.5315 20.0845 21.8103 20.5653 21.3296C21.046 20.8488 21.7672 20.8488 22.2479 21.3296C22.4883 21.57 22.7287 21.6901 23.0892 21.6901C23.8103 21.6901 24.2911 21.2094 24.2911 20.4883C24.2911 19.7671 23.8103 19.2864 23.0892 19.2864Z" fill="white"/>
</svg>
